<svg width="25" height="21" viewBox="0 0 25 21" fill="none" xmlns="http://www.w3.org/2000/svg">
<path d="M1.46891 12.2187C1.5691 12.235 1.6705 12.2425 1.77195 12.2412H19.0469L18.6702 12.4164C18.302 12.5906 17.967 12.8278 17.6803 13.1172L12.836 17.9615C12.198 18.5705 12.0908 19.5503 12.5819 20.2829C13.1536 21.0636 14.2499 21.2331 15.0306 20.6615C15.0937 20.6152 15.1536 20.5649 15.21 20.5107L23.97 11.7506C24.6546 11.0668 24.6552 9.95746 23.9714 9.27286C23.971 9.27243 23.9705 9.27193 23.97 9.27149L15.21 0.511419C14.5248 -0.171812 13.4155 -0.17028 12.7322 0.514868C12.6785 0.568796 12.6283 0.626175 12.5819 0.686619C12.0908 1.41924 12.198 2.39899 12.836 3.00804L17.6715 7.86112C17.9286 8.11845 18.2241 8.33422 18.5476 8.50061L19.0732 8.73713H1.86836C0.973358 8.7039 0.188128 9.32909 0.0199871 10.2088C-0.134901 11.1639 0.513784 12.0638 1.46891 12.2187Z" fill="#212B32"/>
</svg>
