<svg width="60" height="60" viewBox="0 0 60 60" fill="none" xmlns="http://www.w3.org/2000/svg">
<path opacity="0.4" d="M49 27.6316C49 30.5789 48.8947 33.0526 48.6842 35.0526C48.3684 37.0526 47.8421 38.7895 47.1053 40.2632C46.3684 41.8421 45.3684 43.2105 44.1053 44.3684C42.7368 45.5263 41.0526 46.7368 39.0526 48L34.7895 42.7895C36.3684 42.0526 37.6842 41.3158 38.7368 40.5789C39.6842 39.8421 40.4737 38.8947 41.1053 37.7368C41.6316 36.6842 42 35.3158 42.2105 33.6316C42.3158 32.0526 42.3684 30.0526 42.3684 27.6316L33.2105 27.6316L33.2105 12L49 12L49 27.6316ZM26.2632 27.6316C26.2632 30.5789 26.1579 33.0526 25.9474 35.0526C25.6316 37.0526 25.1053 38.7895 24.3684 40.2632C23.6316 41.8421 22.6316 43.2105 21.3684 44.3684C20 45.5263 18.3158 46.7368 16.3158 48L12.0526 42.7895C13.6316 42.0526 14.9474 41.3158 16 40.5789C16.9474 39.8421 17.7368 38.8947 18.3684 37.7368C18.8947 36.6842 19.2632 35.3158 19.4737 33.6316C19.579 32.0526 19.6316 30.0526 19.6316 27.6316L10.4737 27.6316L10.4737 12L26.2632 12L26.2632 27.6316Z" fill="#005EB8"/>
</svg>
