<svg width="60" height="60" viewBox="0 0 60 60" fill="none" xmlns="http://www.w3.org/2000/svg">
<path opacity="0.4" d="M11 32.3684C11 29.4211 11.1053 26.9474 11.3158 24.9474C11.6316 22.9474 12.1579 21.2105 12.8947 19.7368C13.6316 18.1579 14.6316 16.7895 15.8947 15.6316C17.2632 14.4737 18.9474 13.2632 20.9474 12L25.2105 17.2105C23.6316 17.9474 22.3158 18.6842 21.2632 19.4211C20.3158 20.1579 19.5263 21.1053 18.8947 22.2632C18.3684 23.3158 18 24.6842 17.7895 26.3684C17.6842 27.9474 17.6316 29.9474 17.6316 32.3684H26.7895V48H11V32.3684ZM33.7368 32.3684C33.7368 29.4211 33.8421 26.9474 34.0526 24.9474C34.3684 22.9474 34.8947 21.2105 35.6316 19.7368C36.3684 18.1579 37.3684 16.7895 38.6316 15.6316C40 14.4737 41.6842 13.2632 43.6842 12L47.9474 17.2105C46.3684 17.9474 45.0526 18.6842 44 19.4211C43.0526 20.1579 42.2632 21.1053 41.6316 22.2632C41.1053 23.3158 40.7368 24.6842 40.5263 26.3684C40.421 27.9474 40.3684 29.9474 40.3684 32.3684H49.5263V48H33.7368V32.3684Z" fill="#005EB8"/>
</svg>
