<svg width="24" height="22" viewBox="0 0 24 22" fill="none" xmlns="http://www.w3.org/2000/svg">
<path d="M18.4286 12.714H17.5714C17.4462 12.714 17.3435 12.7541 17.2635 12.8347C17.183 12.9148 17.1429 13.0175 17.1429 13.1425V17.4282C17.1429 18.0175 16.9332 18.5219 16.5136 18.9416C16.094 19.3612 15.5894 19.5708 15.0001 19.5708H3.85707C3.26779 19.5708 2.76328 19.3612 2.34359 18.9416C1.92398 18.5219 1.71421 18.0176 1.71421 17.4282V6.28534C1.71421 5.69607 1.92394 5.19175 2.34359 4.7721C2.76328 4.3524 3.26779 4.14267 3.85707 4.14267H13.2855C13.4107 4.14267 13.5135 4.10237 13.5937 4.02211C13.674 3.94176 13.7141 3.83917 13.7141 3.71406V2.85679C13.7141 2.73192 13.674 2.62914 13.5937 2.54893C13.5135 2.46857 13.4107 2.42847 13.2855 2.42847H3.85707C2.79467 2.42847 1.88613 2.80571 1.13155 3.56015C0.377244 4.31454 0 5.22308 0 6.28548V17.4284C0 18.4907 0.377244 19.3994 1.13159 20.1536C1.88617 20.9081 2.79471 21.2855 3.85711 21.2855H15.0001C16.0624 21.2855 16.9711 20.9081 17.7256 20.1536C18.4801 19.3994 18.8573 18.4908 18.8573 17.4284V13.1429C18.8573 13.0177 18.8172 12.9149 18.7366 12.8347C18.6562 12.7541 18.5535 12.714 18.4286 12.714Z" fill="#005EB8"/>
<path d="M23.7453 0.968791C23.5756 0.79912 23.3745 0.714355 23.1425 0.714355H16.2854C16.0533 0.714355 15.8523 0.79912 15.6828 0.968791C15.5131 1.13837 15.4281 1.33928 15.4281 1.57143C15.4281 1.80359 15.5131 2.00455 15.6828 2.17422L18.0398 4.53131L9.3078 13.2635C9.21839 13.3528 9.17383 13.4555 9.17383 13.5714C9.17383 13.6876 9.21853 13.7903 9.3078 13.8796L10.8346 15.4062C10.9239 15.4955 11.0266 15.54 11.1427 15.54C11.2587 15.54 11.3615 15.4955 11.4507 15.4062L20.1828 6.67417L22.54 9.03126C22.7095 9.20093 22.9105 9.28579 23.1426 9.28579C23.3748 9.28579 23.5758 9.20093 23.7455 9.03126C23.9151 8.86163 23.9999 8.66077 23.9999 8.42862V1.57143C23.9999 1.33914 23.9148 1.13837 23.7453 0.968791Z" fill="#005EB8"/>
</svg>
