<svg width="25" height="21" viewBox="0 0 25 21" fill="none" xmlns="http://www.w3.org/2000/svg">
<path d="M1.46939 12.2187C1.56959 12.235 1.67099 12.2425 1.77244 12.2412H19.0474L18.6707 12.4164C18.3025 12.5906 17.9675 12.8278 17.6808 13.1172L12.8365 17.9615C12.1985 18.5705 12.0913 19.5503 12.5824 20.2829C13.1541 21.0636 14.2503 21.2331 15.0311 20.6615C15.0942 20.6152 15.1541 20.5649 15.2105 20.5107L23.9705 11.7506C24.6551 11.0668 24.6557 9.95746 23.9719 9.27286C23.9715 9.27243 23.971 9.27193 23.9705 9.27149L15.2105 0.511419C14.5253 -0.171812 13.416 -0.17028 12.7327 0.514868C12.679 0.568796 12.6287 0.626175 12.5824 0.686619C12.0913 1.41924 12.1985 2.39899 12.8365 3.00804L17.672 7.86112C17.9291 8.11845 18.2246 8.33422 18.548 8.50061L19.0736 8.73713H1.86885C0.973846 8.7039 0.188616 9.32909 0.0204754 10.2088C-0.134413 11.1639 0.514273 12.0638 1.46939 12.2187Z" fill="#212B32"/>
</svg>
